<svg width="32" height="32" viewBox="0 0 32 32" fill="none" xmlns="http://www.w3.org/2000/svg">
<path fill-rule="evenodd" clip-rule="evenodd" d="M16 2C23.732 2 30 8.26802 30 16C30 23.732 23.732 30 16 30C8.26806 30 2 23.732 2 16C2 8.26803 8.26806 2 16 2ZM16 0C24.8366 0 32 7.16345 32 16C32 24.8365 24.8366 32 16 32C7.16349 32 0 24.8365 0 16C0 7.16345 7.16349 0 16 0ZM15 10C15 9.44772 15.4477 9 16 9C16.5523 9 17 9.44772 17 10V15H22C22.5523 15 23 15.4477 23 16C23 16.5523 22.5523 17 22 17H17V22C17 22.5523 16.5523 23 16 23C15.4477 23 15 22.5523 15 22V17H10C9.44772 17 9 16.5523 9 16C9 15.4477 9.44772 15 10 15H15V10Z" fill="#2E3238"/>
</svg>
