<?xml version="1.0" encoding="utf-8"?>
<!-- Generator: Adobe Illustrator 19.2.1, SVG Export Plug-In . SVG Version: 6.00 Build 0)  -->
<svg version="1.1" id="Layer_1" xmlns="http://www.w3.org/2000/svg" xmlns:xlink="http://www.w3.org/1999/xlink" x="0px" y="0px"
	 viewBox="0 0 101 73.3" style="enable-background:new 0 0 101 73.3;" xml:space="preserve">
<style type="text/css">
	.st0{fill:#99A4B0;}
</style>
<path class="st0" d="M100.1,35l-9.5-9.6c-1-1-2.6-1-3.5,0c-1,1-1,2.6,0,3.6l4.8,4.9l-88.5,0c-1.4,0-2.7,1.1-2.7,2.6
	c0,1.4,1.2,2.6,2.7,2.6l89.1,0l-5.1,5.2c-1,1-1,2.6,0,3.6c0.5,0.5,1.1,0.8,1.8,0.8c0.6,0,1.3-0.2,1.8-0.7l9.1-9.3
	c0.5-0.5,0.7-1.1,0.7-1.8S100.5,35.5,100.1,35z"/>
</svg>
