<?xml version="1.0" encoding="utf-8"?>
<!-- Generator: Adobe Illustrator 19.2.1, SVG Export Plug-In . SVG Version: 6.00 Build 0)  -->
<svg version="1.1" id="Layer_1" xmlns="http://www.w3.org/2000/svg" xmlns:xlink="http://www.w3.org/1999/xlink" x="0px" y="0px"
	 viewBox="0 0 101 73.3" style="enable-background:new 0 0 101 73.3;" xml:space="preserve">
<style type="text/css">
	.st0{fill:#99A4B0;}
</style>
<path class="st0" d="M98.2,43.8c-1.7,0-3,1.3-3,3v7.8l-27.3-45c-0.6-0.9-1.6-1.4-2.6-1.4s-2,0.5-2.5,1.4L34.9,55.1L5.8,9.6
	C4.9,8.2,3.1,7.8,1.7,8.7s-1.8,2.7-0.9,4.1l31.6,49.5c0.6,0.9,1.5,1.4,2.6,1.4c1,0,2-0.5,2.5-1.4L65.3,17L91,59.1h-7.5
	c-1.7,0-3,1.3-3,3s1.3,3,3,3h14.7c1.6,0,3-1.4,3-3V46.8C101.2,45.1,99.9,43.8,98.2,43.8z"/>
</svg>
