<?xml version="1.0" encoding="utf-8"?>
<!-- Generator: Adobe Illustrator 19.2.1, SVG Export Plug-In . SVG Version: 6.00 Build 0)  -->
<svg version="1.1" id="Layer_1" xmlns="http://www.w3.org/2000/svg" xmlns:xlink="http://www.w3.org/1999/xlink" x="0px" y="0px"
	 viewBox="0 0 101 73.3" style="enable-background:new 0 0 101 73.3;" xml:space="preserve">
<style type="text/css">
	.st0{fill:#99A4B0;}
</style>
<path class="st0" d="M51.2,0c-9.4,0-18,3.6-24.5,9.4l-12.4,1.5c-1.6,0.2-2.8,1.7-2.6,3.4c0.2,1.6,1.7,2.8,3.3,2.6l5.8-0.7
	c-4,5.8-6.3,12.9-6.3,20.5c0,20.2,16.4,36.6,36.6,36.6s36.6-16.4,36.6-36.6C87.9,16.4,71.4,0,51.2,0z M51.2,67.3
	c-16.9,0-30.6-13.7-30.6-30.6c0-6.2,1.9-12,5-16.8l0.7,5.4c0.2,1.5,1.5,2.6,3,2.6c0.1,0,0.2,0,0.4,0c1.6-0.2,2.8-1.7,2.6-3.3
	L31,13.9C36.3,8.9,43.4,6,51.2,6c16.9,0,30.6,13.7,30.6,30.6C81.9,53.5,68.1,67.3,51.2,67.3z"/>
</svg>
